<?xml version="1.0" encoding="utf-8"?>
<!-- Generator: Adobe Illustrator 18.0.0, SVG Export Plug-In . SVG Version: 6.00 Build 0)  -->
<!DOCTYPE svg PUBLIC "-//W3C//DTD SVG 1.1//EN" "http://www.w3.org/Graphics/SVG/1.1/DTD/svg11.dtd">
<svg version="1.1" id="Layer_1" xmlns="http://www.w3.org/2000/svg" xmlns:xlink="http://www.w3.org/1999/xlink" x="0px" y="0px"
	 viewBox="0 0 343.207 69.659" enable-background="new 0 0 343.207 69.659" xml:space="preserve">
<g>
	<g>
		<path fill="#333333" d="M54.914,0L40.067,39.355c-1.764,4.611-3.238,8.644-4.424,12.101c-1.187,3.458-2.221,6.813-3.102,10.068
			h-0.305c-0.95-3.389-2.034-6.847-3.254-10.373c-1.22-3.524-2.611-7.49-4.169-11.898L10.373,0H4.881L0,68.541h4.678l2.135-31.525
			C7.22,31.321,7.541,25.695,7.78,20.135c0.237-5.558,0.389-10.373,0.458-14.44h0.305c1.017,3.864,2.237,7.916,3.661,12.152
			c1.424,4.238,3.084,9.035,4.983,14.389l13.22,36.304h3.356l14.135-37.219c1.897-5.085,3.575-9.677,5.034-13.779
			c1.457-4.101,2.762-8.05,3.915-11.847h0.305c0,1.899,0.033,4.052,0.102,6.457c0.067,2.407,0.168,4.95,0.305,7.627
			c0.135,2.679,0.288,5.407,0.458,8.186c0.168,2.781,0.321,5.458,0.458,8.034l2.034,32.542h4.78L60.71,0H54.914z M108.301,56.948
			v-19.22c0-2.237-0.222-4.49-0.664-6.763c-0.442-2.271-1.276-4.322-2.499-6.152c-1.225-1.831-2.909-3.321-5.051-4.474
			c-2.143-1.152-4.916-1.729-8.318-1.729c-2.517,0-4.932,0.323-7.246,0.966c-2.313,0.645-4.555,1.713-6.729,3.203l1.525,3.559
			c1.702-1.152,3.591-2.05,5.668-2.695c2.075-0.644,4.169-0.966,6.281-0.966c2.79,0,5.004,0.512,6.637,1.535
			c1.633,1.023,2.86,2.286,3.677,3.788s1.344,3.087,1.583,4.759c0.238,1.672,0.357,3.156,0.357,4.452v1.33
			c-9.696-0.135-16.983,1.368-21.864,4.511s-7.322,7.552-7.322,13.228c0,1.622,0.288,3.245,0.864,4.865
			c0.575,1.622,1.44,3.059,2.593,4.308c1.152,1.25,2.627,2.264,4.424,3.041c1.796,0.775,3.88,1.165,6.254,1.165
			c1.897,0,3.643-0.238,5.237-0.712c1.592-0.474,3.016-1.101,4.271-1.881c1.254-0.779,2.355-1.643,3.305-2.593
			c0.949-0.949,1.729-1.897,2.339-2.847h0.203l0.712,6.915h4.474c-0.34-1.831-0.543-3.728-0.61-5.695
			C108.335,60.88,108.301,58.915,108.301,56.948z M103.522,52.982c0,0.747-0.17,1.729-0.508,2.949
			c-0.41,1.22-1.006,2.407-1.788,3.559c-0.783,1.154-1.754,2.186-2.911,3.102s-2.518,1.645-4.085,2.186
			c-1.567,0.543-3.337,0.814-5.31,0.814c-1.227,0-2.418-0.203-3.575-0.61c-1.157-0.407-2.178-1.017-3.063-1.83
			c-0.887-0.814-1.602-1.846-2.145-3.102c-0.545-1.254-0.817-2.762-0.817-4.525c0-2.914,0.782-5.253,2.348-7.017
			c1.565-1.762,3.539-3.102,5.922-4.017c2.383-0.915,4.988-1.508,7.813-1.78c2.825-0.27,5.533-0.372,8.12-0.305V52.982z
			 M128.131,29.303c1.627-1.97,3.643-3.551,6.051-4.74c2.406-1.189,5.202-1.784,8.39-1.784c2.644,0,4.881,0.305,6.712,0.915
			c1.831,0.61,3.321,1.255,4.474,1.932l1.729-4.038c-0.95-0.661-2.526-1.306-4.729-1.935c-2.204-0.628-4.764-0.942-7.678-0.942
			c-3.594,0-6.899,0.643-9.915,1.929c-3.017,1.285-5.611,3.062-7.779,5.328c-2.17,2.267-3.864,4.991-5.085,8.17
			c-1.22,3.181-1.83,6.699-1.83,10.554c0,3.721,0.542,7.106,1.627,10.15c1.084,3.044,2.626,5.666,4.627,7.865
			c1.999,2.199,4.406,3.89,7.22,5.073c2.812,1.184,5.949,1.776,9.407,1.776s6.372-0.348,8.746-1.041
			c2.372-0.694,4.068-1.306,5.085-1.837l-1.22-3.834c-1.357,0.543-2.949,1.119-4.78,1.729c-1.831,0.61-4.169,0.915-7.017,0.915
			c-2.781,0-5.323-0.493-7.627-1.478c-2.305-0.985-4.306-2.395-6-4.23c-1.695-1.835-3-4.061-3.915-6.677
			c-0.915-2.615-1.373-5.522-1.373-8.717c0-2.854,0.407-5.588,1.22-8.205C125.284,33.568,126.504,31.274,128.131,29.303z
			 M245.146,22.364c-1.656-1.487-3.362-2.469-5.12-2.943c-1.757-0.473-3.243-0.71-4.46-0.71c-2.501,0-4.613,0.337-6.335,1.007
			c-1.724,0.672-3.362,1.646-4.916,2.92c-1.961,1.611-3.616,3.759-4.967,6.445h-0.203c-1.017-3.021-2.73-5.504-5.135-7.452
			c-2.407-1.946-5.272-2.92-8.593-2.92c-3.933,0-7.118,0.89-9.559,2.666c-2.441,1.778-4.408,4.042-5.898,6.791h-0.407v-8.44h-4.678
			c0.135,1.967,0.237,3.831,0.305,5.593c0.067,1.764,0.102,3.798,0.102,6.102v37.118h4.78V38.44c0-0.88,0.067-1.711,0.203-2.491
			c0.135-0.779,0.305-1.541,0.508-2.288c0.474-1.424,1.134-2.797,1.983-4.119c0.847-1.322,1.83-2.474,2.949-3.458
			c1.119-0.982,2.39-1.78,3.813-2.39c1.424-0.61,2.914-0.915,4.474-0.915c3.931,0,6.898,1.424,8.898,4.271
			c1.999,2.847,3,6.442,3,10.779v30.711h4.78V37.219c0-0.88,0.084-1.711,0.254-2.491c0.168-0.779,0.356-1.541,0.559-2.288
			c0.949-2.576,2.525-4.83,4.729-6.763c2.202-1.932,4.795-2.898,7.779-2.898c4.271,0,7.406,1.525,9.407,4.576
			c1.999,3.051,3,7.288,3,12.712v28.474h4.78V39.515c0-4.532-0.593-8.151-1.775-10.859
			C248.221,25.951,246.802,23.853,245.146,22.364z M267.753,0.712c-1.154,0-2.12,0.407-2.898,1.22
			c-0.78,0.814-1.169,1.797-1.169,2.949c0,1.154,0.389,2.12,1.169,2.898c0.779,0.78,1.745,1.169,2.898,1.169
			c1.152,0,2.135-0.389,2.949-1.169c0.814-0.779,1.22-1.745,1.22-2.898c0-1.152-0.407-2.135-1.22-2.949S268.905,0.712,267.753,0.712
			z M265.414,68.541h4.78V19.728h-4.78V68.541z M315.904,22.163c-1.797-1.421-3.628-2.352-5.491-2.792
			c-1.865-0.439-3.373-0.659-4.525-0.659c-3.933,0-7.322,0.941-10.169,2.819c-2.847,1.878-4.916,4.16-6.203,6.842h-0.407v-8.644
			h-4.678c0.135,1.967,0.237,3.831,0.305,5.593c0.067,1.764,0.102,3.798,0.102,6.102v37.118h4.78V38.236
			c0-1.559,0.237-2.982,0.712-4.271c0.949-3.254,2.711-5.932,5.288-8.034c2.576-2.101,5.558-3.152,8.949-3.152
			c2.441,0,4.508,0.458,6.203,1.373c1.694,0.915,3.051,2.135,4.068,3.661c1.017,1.525,1.745,3.305,2.186,5.339
			c0.44,2.034,0.661,4.136,0.661,6.305v29.084h4.78V39.009c0-4.465-0.645-8.034-1.932-10.706
			C319.242,25.63,317.699,23.583,315.904,22.163z M341.987,1.932c-0.814-0.814-1.797-1.22-2.949-1.22
			c-1.154,0-2.12,0.407-2.898,1.22c-0.78,0.814-1.169,1.797-1.169,2.949c0,1.154,0.389,2.12,1.169,2.898
			c0.779,0.78,1.745,1.169,2.898,1.169c1.152,0,2.135-0.389,2.949-1.169c0.814-0.779,1.22-1.745,1.22-2.898
			C343.207,3.729,342.801,2.746,341.987,1.932z M336.699,68.541h4.78V19.728h-4.78V68.541z"/>
	</g>
</g>
</svg>
